<?xml version="1.0" encoding="utf-8"?>
<!-- Generator: Adobe Illustrator 18.0.0, SVG Export Plug-In . SVG Version: 6.00 Build 0)  -->
<!DOCTYPE svg PUBLIC "-//W3C//DTD SVG 1.1//EN" "http://www.w3.org/Graphics/SVG/1.1/DTD/svg11.dtd">
<svg version="1.1" id="Layer_1" xmlns="http://www.w3.org/2000/svg" xmlns:xlink="http://www.w3.org/1999/xlink" x="0px" y="0px"
	 viewBox="0 0 960 560" enable-background="new 0 0 960 560" xml:space="preserve">
<rect fill="#FFFFFF" width="960" height="560"/>
<g>
	<linearGradient id="SVGID_1_" gradientUnits="userSpaceOnUse" x1="480.9173" y1="138.5571" x2="480.459" y2="504.7875">
		<stop  offset="0" style="stop-color:#FFFFFF"/>
		<stop  offset="0.8415" style="stop-color:#84A2A7"/>
	</linearGradient>
	<polygon fill="url(#SVGID_1_)" points="240.1,472 480,106.1 720.9,472 	"/>
	<text transform="matrix(1 0 0 1 418.3538 336.0005)" fill="#FFFFFF" font-family="'OpenSans-Bold'" font-size="72">404</text>
	<circle fill="#84A2A7" cx="480.2" cy="73.9" r="35.2"/>
	<ellipse fill="#84A2A7" stroke="#FFFFFF" stroke-miterlimit="10" cx="480" cy="85" rx="105.2" ry="25.7"/>
	<path fill="#84A2A7" stroke="#FFFFFF" stroke-miterlimit="10" d="M480.2,86.5c0,0-32.7,0.3-33.6,11.5l19,31.5h28.6l19.2-31.7
		C513.5,97.8,515.4,88,480.2,86.5z"/>
	<ellipse fill="#FFFFFF" stroke="#84A2A7" stroke-miterlimit="10" cx="480" cy="127.5" rx="14.3" ry="3.8"/>
	<text transform="matrix(1 0 0 1 400.1525 375)"><tspan x="0" y="0" fill="#FFFFFF" font-family="'OpenSans-Bold'" font-size="16">Aliens have invaded</tspan><tspan x="-15.7" y="19.2" fill="#FFFFFF" font-family="'OpenSans-Bold'" font-size="16">and abducted this page.</tspan><tspan x="-90.7" y="38.4" fill="#FFFFFF" font-family="'OpenSans-Bold'" font-size="16">Go back to the safe alien free mother land.</tspan></text>
	<circle fill="#FFFFFF" cx="480.1" cy="73.5" r="4.5"/>
	<circle fill="#FFFFFF" cx="525.1" cy="77.5" r="4.5"/>
	<circle fill="#FFFFFF" cx="570.1" cy="84.5" r="4.5"/>
	<circle fill="#FFFFFF" cx="393.1" cy="84.5" r="4.5"/>
	<circle fill="#FFFFFF" cx="431.1" cy="77.5" r="4.5"/>
	<line fill="#FFFFFF" stroke="#84A2A7" stroke-miterlimit="10" x1="515" y1="96" x2="550" y2="139.3"/>
	<line fill="#FFFFFF" stroke="#84A2A7" stroke-miterlimit="10" x1="445" y1="97" x2="410" y2="140.3"/>
	<circle fill="#84A2A7" cx="410.1" cy="139.8" r="4.5"/>
	<circle fill="#84A2A7" cx="549.9" cy="139.8" r="4.5"/>
</g>
</svg>
