<?xml version="1.0" encoding="utf-8"?>
<!-- Generator: Adobe Illustrator 18.0.0, SVG Export Plug-In . SVG Version: 6.00 Build 0)  -->
<!DOCTYPE svg PUBLIC "-//W3C//DTD SVG 1.1//EN" "http://www.w3.org/Graphics/SVG/1.1/DTD/svg11.dtd">
<svg version="1.1" id="Layer_1" xmlns="http://www.w3.org/2000/svg" xmlns:xlink="http://www.w3.org/1999/xlink" x="0px" y="0px"
	 viewBox="0 0 159.6 159.6" enable-background="new 0 0 159.6 159.6" xml:space="preserve">
<g>
	<path fill="#85A2A6" d="M24.9,52.2c0,0-0.9,1.2-5.8,3.6c-3.6,1.8-3.6,5.3-1.5,7.9s6.9,3.8,12.1-2.5s11.7-14.1,14.2-16.3
		c2.5-2.3,4.4-4.1,0.8,3S31.2,73.3,23.8,82.5l-2.5,3.7c0,0-0.6,1.1-3.2,1.8s-1.2,7.7,0.3,10.6c1.5,2.8,3.8,6.2,8.8-1.7
		s20.7-28.5,30.3-37.6s20.7-18.8,15-11.1C68.2,53.9,54,75.4,51.8,78c-2.2,2.7-1.7,3-4.5,3.4c-2.8,0.4-0.8,1.7-0.9,4.1
		c-0.1,2.4,0.5,17.7,7,9.8s20.3-25.5,27.6-34s25.2-22.5,14.6-10.8s-25.1,29.2-30.6,38c-5.6,8.9-14.2,24.3-11.2,31.1
		c3,6.8,5.2,10,11.8,3.1s8.1-7.6,7.9-12.9c-0.2-5.3-11.1,7.7-6.3-0.6S80,86.4,95,68.3c0,0,11.3-13.8,14.1-17.1
		c2.7-3.3,17.2-20.3,10.9-21.9c-6.4-1.6-7.8-2.3-12.1,0c-4.3,2.3-13.1,7.2-16.7,10.2c-8.5,7-6.9,6.4-4.4,1.4c1.2-2.4,2.3-5-4.8-6.6
		c-7.1-1.6-16.6,7-20.5,10.1c-8,6.4-12.5,12.8-9.6,7c1.7-3.3,3.7-8.7,4.7-13s3.9-7.8-3.2-7.6c-4,0.1-4.4-0.5-9.2,2.7
		C40,36.3,29.2,47.9,24.9,52.2z"/>
	<path fill="#85A2A6" d="M70.4,9.2c0,0-3,2-5.4,2.2s-3,4.5,0.2,5.4c3.1,0.8,2.8,0.5,15.5-4s19-6.6,35.9-4.4s23.4,13.2,27,19.7
		c3.7,6.5,5.6,20.5,1,34.8s-9.5,28.1-22,41.2s-24.9,23.7-42.3,31s-26,9.5-49.4,9s-24.7-13.8-21-21.2c3.6-7.4,13.4-6.7,17.4-4.2
		c3.4,2.2,3.9,4.1,5,6.9c1.5,3.5,3.9,11.3,7.2,10.3s3.5-1.4,4.1-4.9s1.5-5.1-1.5-3.9c-3,1.2-5.1,2.9-6.1-1
		c-0.9-3.9-3.5-13.6-14.7-13.5c-11.2,0.2-22.7,6.1-21.3,24.7s27.5,21.6,36.8,22.1s38.4,0.2,61-13.8s34.6-24.7,46.5-44.1
		S160,70,159.6,47.4c-0.3-18.4-8.3-27.4-12.4-31.8c-4-4.5-16.1-15.9-34.3-15.5S84.3,2.3,70.4,9.2z"/>
</g>
</svg>
