<?xml version="1.0" encoding="utf-8"?>
<!-- Generator: Adobe Illustrator 18.0.0, SVG Export Plug-In . SVG Version: 6.00 Build 0)  -->
<!DOCTYPE svg PUBLIC "-//W3C//DTD SVG 1.1//EN" "http://www.w3.org/Graphics/SVG/1.1/DTD/svg11.dtd">
<svg version="1.1" id="Layer_1" xmlns="http://www.w3.org/2000/svg" xmlns:xlink="http://www.w3.org/1999/xlink" x="0px" y="0px"
	 viewBox="0 0 1280 800" enable-background="new 0 0 1280 800" xml:space="preserve">
<g>
	<path fill="#FFFFFF" d="M364.8,261.7c0,0-4.5,6-29.1,18c-18,9-18,26.6-7.5,39.6c10.5,13,34.6,19,60.7-12.5
		c26.1-31.6,58.6-70.7,71.2-81.7c12.5-11.5,22.1-20.6,4,15c-18,35.6-67.7,127.3-104.8,173.4l-12.5,18.5c0,0-3,5.5-16,9
		s-6,38.6,1.5,53.1c7.5,14,19,31.1,44.1-8.5c25.1-39.6,103.8-142.9,151.9-188.5S632,203,603.4,241.6
		c-21.6,28.6-92.7,136.3-103.8,149.4c-11,13.5-8.5,15-22.6,17c-14,2-4,8.5-4.5,20.6c-0.5,12,2.5,88.7,35.1,49.1
		S609.4,349.9,646,307.3s126.3-112.8,73.2-54.1S593.4,399.5,565.8,443.6c-28.1,44.6-71.2,121.8-56.1,155.9
		c15,34.1,26.1,50.1,59.1,15.5c33.1-34.6,40.6-38.1,39.6-64.7c-1-26.6-55.6,38.6-31.6-3s64.2-114.3,139.3-205
		c0,0,56.6-69.2,70.7-85.7c13.5-16.5,86.2-101.8,54.6-109.8c-32.1-8-39.1-11.5-60.7,0c-21.6,11.5-65.7,36.1-83.7,51.1
		c-42.6,35.1-34.6,32.1-22.1,7c6-12,11.5-25.1-24.1-33.1c-35.6-8-83.2,35.1-102.8,50.6c-40.1,32.1-62.7,64.2-48.1,35.1
		c8.5-16.5,18.5-43.6,23.6-65.2c5-21.6,19.5-39.1-16-38.1c-20.1,0.5-22.1-2.5-46.1,13.5C440.5,182,386.4,240.1,364.8,261.7z"/>
	<path fill="#FFFFFF" d="M592.9,46.1c0,0-15,10-27.1,11c-12,1-15,22.6,1,27.1c15.5,4,14,2.5,77.7-20.1s95.2-33.1,179.9-22.1
		s117.3,66.2,135.3,98.7c18.5,32.6,28.1,102.8,5,174.4s-47.6,140.9-110.3,206.5s-124.8,118.8-212,155.4s-130.3,47.6-247.6,45.1
		S271.1,653.1,289.6,616c18-37.1,67.2-33.6,87.2-21.1c17,11,19.5,20.6,25.1,34.6c7.5,17.5,19.5,56.6,36.1,51.6
		c16.5-5,17.5-7,20.6-24.6c3-17.5,7.5-25.6-7.5-19.5c-15,6-25.6,14.5-30.6-5c-4.5-19.5-17.5-68.2-73.7-67.7
		C290.6,565.4,233,595,240,688.2c7,93.2,137.8,108.3,184.5,110.8c46.6,2.5,192.5,1,305.8-69.2S903.7,606,963.3,508.8
		s78.7-157.9,76.7-271.2c-1.5-92.2-41.6-137.3-62.2-159.4C957.8,55.6,897.1-1.5,805.9,0.5S662.6,11.5,592.9,46.1z"/>
</g>
</svg>
