<?xml version="1.0" encoding="utf-8"?>
<!-- Generator: Adobe Illustrator 18.0.0, SVG Export Plug-In . SVG Version: 6.00 Build 0)  -->
<!DOCTYPE svg PUBLIC "-//W3C//DTD SVG 1.1//EN" "http://www.w3.org/Graphics/SVG/1.1/DTD/svg11.dtd">
<svg version="1.1" id="Layer_1" xmlns="http://www.w3.org/2000/svg" xmlns:xlink="http://www.w3.org/1999/xlink" x="0px" y="0px"
	 viewBox="283 372.9 46 46.2" enable-background="new 283 372.9 46 46.2" xml:space="preserve">
<g>
	<path fill="#85A2A6" d="M291.8,388.9c0,0-0.2,0.3-1.5,0.9c-0.9,0.5-0.9,1.4-0.4,2c0.5,0.7,1.8,1,3.1-0.6c1.3-1.6,3-3.6,3.6-4.2
		c0.6-0.6,1.1-1.1,0.2,0.8c-0.9,1.8-3.5,6.5-5.4,8.9l-0.6,0.9c0,0-0.2,0.3-0.8,0.5s-0.3,2,0.1,2.7c0.4,0.7,1,1.6,2.3-0.4
		s5.3-7.3,7.8-9.6c2.5-2.3,5.3-4.8,3.8-2.8c-1.1,1.5-4.7,7-5.3,7.6c-0.6,0.7-0.4,0.8-1.2,0.9c-0.7,0.1-0.2,0.4-0.2,1.1
		c0,0.6,0.1,4.5,1.8,2.5c1.7-2,5.2-6.5,7.1-8.7c1.9-2.2,6.5-5.8,3.7-2.8c-2.7,3-6.4,7.5-7.9,9.7c-1.4,2.3-3.6,6.2-2.9,8
		c0.8,1.7,1.3,2.6,3,0.8s2.1-1.9,2-3.3c-0.1-1.4-2.8,2-1.6-0.2c1.2-2.1,3.3-5.8,7.1-10.5c0,0,2.9-3.5,3.6-4.4
		c0.7-0.8,4.4-5.2,2.8-5.6c-1.6-0.4-2-0.6-3.1,0c-1.1,0.6-3.4,1.8-4.3,2.6c-2.2,1.8-1.8,1.6-1.1,0.4c0.3-0.6,0.6-1.3-1.2-1.7
		c-1.8-0.4-4.3,1.8-5.3,2.6c-2.1,1.6-3.2,3.3-2.5,1.8c0.4-0.8,0.9-2.2,1.2-3.3c0.3-1.1,1-2-0.8-1.9c-1,0-1.1-0.1-2.4,0.7
		C295.6,384.9,292.9,387.8,291.8,388.9z"/>
	<path fill="#85A2A6" d="M303.4,377.9c0,0-0.8,0.5-1.4,0.6c-0.6,0.1-0.8,1.2,0.1,1.4c0.8,0.2,0.7,0.1,4-1c3.3-1.2,4.9-1.7,9.2-1.1
		c4.3,0.6,6,3.4,6.9,5.1c0.9,1.7,1.4,5.3,0.3,8.9c-1.2,3.7-2.4,7.2-5.6,10.6c-3.2,3.4-6.4,6.1-10.9,8s-6.7,2.4-12.7,2.3
		c-6-0.1-6.3-3.5-5.4-5.4c0.9-1.9,3.4-1.7,4.5-1.1c0.9,0.6,1,1.1,1.3,1.8c0.4,0.9,1,2.9,1.8,2.6s0.9-0.4,1.1-1.3
		c0.2-0.9,0.4-1.3-0.4-1s-1.3,0.7-1.6-0.3c-0.2-1-0.9-3.5-3.8-3.5c-2.9,0.1-5.8,1.6-5.5,6.3s7.1,5.5,9.4,5.7
		c2.4,0.1,9.9,0.1,15.7-3.5c5.8-3.6,8.9-6.3,11.9-11.3c3.1-5,4-8.1,3.9-13.9c-0.1-4.7-2.1-7-3.2-8.2c-1-1.2-4.1-4.1-8.8-4
		S307,376.1,303.4,377.9z"/>
</g>
</svg>
